<?xml version="1.0" encoding="UTF-8"?>
<svg id="Layer_1" data-name="Layer 1" xmlns="http://www.w3.org/2000/svg" viewBox="0 0 100 100">
  <defs>
    <style>
      .cls-1 {
        fill: #231f20;
      }
    </style>
  </defs>
  <path class="cls-1" d="M10,49.78c.05-.12,.14-.24,.15-.36,.04-.58,.04-1.17,.1-1.75,.15-1.56,.21-3.14,.52-4.68,.4-1.99,.9-3.98,1.53-5.91,.95-2.95,2.32-5.72,3.99-8.35,2.7-4.26,6.06-7.88,10.11-10.88,2.2-1.63,4.53-3.04,7.03-4.14,1.62-.72,3.29-1.33,4.98-1.86,1.64-.51,3.31-.92,5-1.23,2.66-.49,5.36-.61,8.07-.49,1.22,.05,2.45,.1,3.66,.24,1.09,.13,2.16,.36,3.23,.59,1.01,.21,2.04,.42,3.02,.73,1.3,.4,2.58,.84,3.84,1.35,2.03,.81,3.97,1.81,5.82,2.96,2.55,1.59,4.9,3.42,7.04,5.53,1.87,1.84,3.56,3.83,5.03,6,1.19,1.75,2.27,3.56,3.12,5.5,.59,1.35,1.17,2.7,1.66,4.08,.41,1.15,.7,2.34,.99,3.53,.31,1.29,.64,2.59,.79,3.91,.19,1.75,.25,3.53,.31,5.29,.04,1.13,.04,2.26-.06,3.38-.13,1.38-.36,2.75-.58,4.12-.14,.85-.29,1.69-.51,2.53-.27,1.03-.57,2.06-.92,3.07-.35,1.02-.73,2.04-1.19,3.01-.73,1.53-1.47,3.05-2.32,4.51-1.91,3.29-4.31,6.21-7.09,8.8-1.74,1.63-3.62,3.08-5.63,4.37-.1,.06-.26,.12-.35,.07-.54-.26-1.08-.54-1.73-.88,.56-.37,1-.65,1.43-.94,3.19-2.1,5.98-4.62,8.42-7.55,1.81-2.17,3.35-4.51,4.63-7.01,.7-1.37,1.25-2.81,1.8-4.24,.4-1.01,.75-2.05,1.03-3.1,.3-1.1,.54-2.21,.71-3.34,.24-1.58,.44-3.17,.54-4.76,.08-1.32,0-2.64-.01-3.96,0-.33-.03-.67-.08-1-.2-1.47-.36-2.95-.64-4.41-.24-1.31-.52-2.62-.96-3.87-.65-1.87-1.38-3.72-2.22-5.51-1.8-3.81-4.27-7.15-7.24-10.12-1.93-1.94-4.06-3.63-6.35-5.12-1.8-1.17-3.69-2.16-5.66-2.99-1.29-.54-2.62-.97-3.95-1.4-.96-.31-1.94-.57-2.93-.8-.81-.19-1.63-.37-2.46-.44-2.01-.18-4.02-.38-6.04-.39-1.71,0-3.42,.18-5.12,.4-1.26,.16-2.51,.45-3.74,.79-1.69,.47-3.4,.93-5.02,1.61-1.83,.76-3.59,1.69-5.31,2.67-3.2,1.83-5.99,4.19-8.48,6.9-1.95,2.13-3.63,4.46-5.07,6.97-1.09,1.91-2.01,3.9-2.74,5.97-.47,1.33-.85,2.7-1.18,4.07-.33,1.36-.62,2.74-.78,4.13-.27,2.42-.46,4.85-.18,7.29,.12,1.01,.18,2.02,.32,3.03,.12,.89,.29,1.78,.49,2.66,.23,.97,.48,1.94,.79,2.88,.42,1.29,.82,2.6,1.39,3.82,.86,1.83,1.78,3.65,2.83,5.37,1.46,2.4,3.23,4.56,5.22,6.55,2.93,2.92,6.21,5.36,9.94,7.16,1.67,.81,3.4,1.48,5.15,2.1,1.31,.47,2.68,.78,4.05,1.1,3.45,.8,6.96,1.01,10.49,.77,1.16-.08,2.33-.18,3.48-.4,1.47-.27,2.93-.61,4.37-1.02,1.3-.37,2.57-.87,3.85-1.29,.18-.06,.39-.05,.58-.02,.9,.15,1.79,.33,2.74,.51-.48,.23-.93,.48-1.41,.66-1.5,.58-2.98,1.2-4.51,1.69-1.28,.41-2.6,.66-3.91,.96-1.79,.41-3.61,.66-5.45,.68-.09,0-.19,.04-.28,.07h-4.27c-1.01-.11-2.02-.19-3.02-.33-1.03-.13-2.07-.26-3.08-.48-1.24-.28-2.47-.61-3.68-1.01-1.47-.49-2.94-1-4.35-1.62-2.44-1.08-4.74-2.42-6.92-3.98-2.29-1.64-4.38-3.51-6.28-5.58-2.02-2.2-3.75-4.61-5.23-7.21-1.48-2.6-2.65-5.33-3.5-8.2-.43-1.46-.79-2.95-1.05-4.44-.26-1.49-.37-3-.51-4.51-.07-.69-.06-1.39-.11-2.09,0-.12-.1-.24-.15-.36,0-.11,0-.22,0-.33Z"/>
  <path class="cls-1" d="M26.32,23.54c1.29,.05,2.58,.07,3.87,.17,.8,.06,1.61,.15,2.38,.35,1.19,.32,2.38,.66,3.5,1.16,2.76,1.25,4.66,3.42,6.03,6.06,.76,1.46,1.48,2.95,2.19,4.44,1.07,2.25,2.11,4.52,3.16,6.78,.75,1.62,1.5,3.24,2.25,4.87,.69,1.5,1.39,2.99,2.09,4.49,.76,1.65,1.52,3.3,2.28,4.95,.82,1.76,1.63,3.52,2.45,5.28,.77,1.65,1.54,3.29,2.31,4.93,.89,1.91,1.73,3.85,2.66,5.74,.96,1.95,1.9,3.93,3.03,5.77,1.39,2.25,3.11,4.25,5.46,5.57,.71,.4,1.51,.64,2.32,.88-.06,.02-.13,.05-.19,.05-1.2-.05-2.39-.07-3.59-.15-.84-.06-1.69-.17-2.52-.3-2.07-.33-4.01-1-5.73-2.22-2.07-1.47-3.53-3.44-4.61-5.71-1.43-2.99-2.85-5.99-4.25-8.99-1.13-2.41-2.22-4.83-3.35-7.24-1.21-2.59-2.44-5.17-3.64-7.76-1.19-2.57-2.36-5.14-3.55-7.71-1.27-2.74-2.56-5.47-3.85-8.21-.79-1.67-1.55-3.35-2.39-4.99-1.16-2.27-2.7-4.28-4.61-5.98-1.08-.97-2.29-1.75-3.74-2.09,0-.05,.02-.1,.03-.14Z"/>
  <path class="cls-1" d="M77.19,68.88h-13.53s-.03-.06-.04-.08c.2-.13,.39-.26,.59-.38,1.81-1.08,2.73-2.66,2.6-4.77-.08-1.2-.26-2.4-.4-3.6-.1-.86-.18-1.71-.29-2.57-.11-.91-.24-1.82-.36-2.73-.09-.65-.18-1.29-.25-1.94-.17-1.46-.31-2.93-.49-4.39-.17-1.41-.38-2.81-.57-4.21-.1-.79-.18-1.57-.28-2.36-.12-.94-.25-1.87-.37-2.81-.11-.87-.21-1.74-.29-2.61-.06-.68-.11-.93-.4-1.23-2.88,6.74-5.75,13.47-8.62,20.2-.44-.44-.56-.92-.34-1.43,.71-1.69,1.43-3.37,2.14-5.06,.83-1.98,1.65-3.97,2.48-5.94,.97-2.3,1.96-4.59,2.93-6.89,.38-.89,.75-1.79,1.09-2.7,.13-.35,.17-.73,.25-1.09,.16-.77,.34-1.54,.48-2.32,.06-.3,.25-.29,.46-.29,.86,0,1.73,.01,2.59,0,1.7,0,3.4-.01,5.1-.01,.19,0,.38,.02,.58,.03-.53,.37-1.1,.68-1.54,1.11-1.09,1.04-1.75,2.32-1.66,3.86,.06,1.12,.24,2.24,.38,3.35,.07,.59,.19,1.18,.26,1.77,.16,1.23,.3,2.45,.47,3.68,.18,1.28,.4,2.55,.59,3.83,.11,.71,.19,1.43,.29,2.15,.1,.74,.21,1.49,.32,2.23,.11,.74,.21,1.48,.31,2.23,.12,.81,.24,1.62,.36,2.43,.1,.73,.2,1.46,.3,2.19,.12,.82,.25,1.65,.37,2.47,.09,.62,.23,1.23,.26,1.86,.12,2.13,1.06,3.8,2.73,5.07,.35,.27,.76,.46,1.14,.68,.13,.07,.26,.14,.39,.21-.01,.03-.02,.05-.03,.08Z"/>
  <path class="cls-1" d="M39.94,68.89h-13.83c.67-.29,1.32-.54,1.93-.85,1.54-.79,2.57-2.06,3.28-3.6,.36-.78,.7-1.57,1.01-2.37,.15-.38,.23-.8,.3-1.21,.3-1.63,.51-3.26,.54-4.92,.05-3.14,.13-6.27,.18-9.4,.08-4.63,.16-9.25,.24-13.88,0-.19,.03-.38,.1-.58,.35,.44,.79,.83,.78,1.44-.08,5.09-.17,10.17-.25,15.26-.05,3.09-.1,6.19-.13,9.28-.02,1.91,.25,3.78,.89,5.57,.63,1.78,1.6,3.37,3.26,4.41,.51,.32,1.08,.55,1.69,.85Z"/>
</svg>